<svg xmlns="http://www.w3.org/2000/svg" id="mainsvg" width="655.9299970626831" height="1242.7700050354006" viewBox="-38.366668701171875 -10 596.2999973297119 1130.7000045776367"><defs><marker id="arrow" viewBox="0 0 10 10" refX="10" refY="5" markerWidth="5" markerHeight="5" orient="auto-start-reverse" fill="black"><path stroke="black" d="M 0 0 L 10 5 L 0 10 z"/></marker><marker id="Many" viewBox="0 0 16 16" refX="15" refY="8" markerWidth="15" markerHeight="15" orient="auto-start-reverse"><path stroke="black" d="M0 8H15M15 15L2 8L15 1" fill="none"/></marker><marker id="ZeroOrOne" viewBox="0 0 16 10" refX="15" refY="5" markerWidth="21" markerHeight="21" orient="auto-start-reverse"><path d="M9 5H16" stroke="black" fill="none"/><circle cx="5" cy="5" r="4.5" stroke="black" fill="#fff"/><path d="M12 0L12 10" stroke="black" fill="none"/></marker><marker id="OneOnlyOne" viewBox="0 0 10 14" refX="10" refY="7" markerWidth="13" markerHeight="13" orient="auto-start-reverse"><path d="M0 7H4M4 7H7M4 7V0M4 7V14M7 7H10M7 7V0M7 7V14" stroke="black" fill="none"/></marker><marker id="OneOrMany" viewBox="0 0 16 16" refX="15" refY="8" markerWidth="15" markerHeight="15" orient="auto-start-reverse"><path stroke="black" d="M2 1V15M2 8L15 15M2 8L15 1M2 8H0M2 8H15" fill="none"/></marker><marker id="ZeroOrMany" viewBox="0 0 25 16" refX="23" refY="8" markerWidth="25" markerHeight="25" orient="auto-start-reverse"><path d="M13 8H27M27 15L14 8L27 1" stroke="black" fill="none"/><path d="M13.5 7.5C13.5 10.7795 10.6254 13.5 7 13.5C3.37461 13.5 0.5 10.7795 0.5 7.5C0.5 4.22054 3.37461 1.5 7 1.5C10.6254 1.5 13.5 4.22054 13.5 7.5Z" stroke="black" fill="#fff"/></marker><marker id="aggregation" viewBox="0 0 10 6" refX="9.3" refY="2.8" markerWidth="23" markerHeight="15" orient="auto-start-reverse"><path stroke="black" fill="#fff" stroke-width="0.7" d="M1.01614 2.82609L5 0.574341L8.98386 2.82609L5 5.07783L1.01614 2.82609Z"/></marker><marker id="composition" viewBox="0 0 10 6" refX="9.7" refY="2.8" markerWidth="18" markerHeight="15" orient="auto-start-reverse"><path stroke="black" fill="black" d="M1.01614 2.82609L5 0.574341L8.98386 2.82609L5 5.07783L1.01614 2.82609Z"/></marker><marker id="implementation" viewBox="0 0 8 10" refX="8" refY="5" markerWidth="20" markerHeight="20" orient="auto-start-reverse"><path stroke="black" fill="#fff" stroke-width="0.7" d="M0.750001 1.10289L7.5 5L0.750001 8.89712L0.750001 1.10289Z"/></marker><marker id="dependency" viewBox="0 0 12 12" refX="11" refY="6" markerWidth="12" markerHeight="11" orient="auto-start-reverse"><path stroke="black" fill="#fff" d="M1 5.93162H10.886M10.886 5.93162L1 0.5M10.886 5.93162L1 11"/></marker><marker id="inheritance" viewBox="0 0 8 10" refX="8" refY="5" markerWidth="20" markerHeight="20" orient="auto-start-reverse"><path stroke="black" fill="#fff" stroke-width="0.7" d="M0.750001 1.10289L7.5 5L0.750001 8.89712L0.750001 1.10289Z"/></marker><marker id="association" viewBox="0 0 12 12" refX="11" refY="6" markerWidth="12" markerHeight="11" orient="auto-start-reverse"><path stroke="black" d="M1 5.93162H10.886M10.886 5.93162L1 0.5M10.886 5.93162L1 11"/></marker><filter id="shadowOLD" x="-50%" y="-50%" width="250%" height="250%"><feDropShadow flood-color="black" flood-opacity="0.3" dx="1" dy="1" stdDeviation="2"> </feDropShadow></filter><filter id="shadow-path" filterUnits="userSpaceOnUse" x="-38.366668701171875" y="-10" width="596.2999973297119px" height="1120.7000045776367px"><feDropShadow flood-color="black" flood-opacity="0.1" dx="1" dy="1" stdDeviation="1"> </feDropShadow></filter><filter id="shadow" filterUnits="userSpaceOnUse" x="-38.366668701171875" y="-10" width="696.2999973297119px" height="1220.7000045776367px"><feDropShadow flood-color="black" flood-opacity="0.1" dx="1" dy="1" stdDeviation="1"> </feDropShadow></filter></defs><rect x="-38.366668701171875" y="-10" width="596.2999973297119" height="1120.7000045776367" fill="#fff"/><g transform="translate(0, 0)"><rect width="93.31666564941406" height="35" stroke="black" fill="white" stroke-width="2" transform="translate(0, 0)" rx="3"/><text fill="black" font-size="16" font-weight="normal" transform="translate(8, 8)" alignment-baseline="middle" font-family="Arial"><tspan x="0" dy="16" font-family="Arial" font-size="16" font-weight="normal">REQUEST</tspan></text></g><g transform="translate(-7.141666412353516, 63)"><rect width="107.5999984741211" height="54" stroke="black" fill="white" stroke-width="2" transform="translate(0, 0)" rx="3"/><text fill="black" font-size="16" font-weight="normal" transform="translate(8, 8)" alignment-baseline="middle" font-family="Arial"><tspan x="0" dy="16" font-family="Arial" font-size="16" font-weight="normal">-merkleRoot </tspan><tspan x="0" dy="16" font-family="Arial" font-size="16" font-weight="normal">-mode</tspan></text></g><g transform="translate(-28.366668701171875, 145)"><path d="M 75.0250015258789,0 L 150.0500030517578 75.0250015258789 L 75.0250015258789 150.0500030517578 L 0 75.0250015258789 Z" fill="white" stroke="black" stroke-dasharray="none" stroke-width="2"/><g transform="translate(27, 48.025001525878906)"><rect width="96.05000305175781" height="54" stroke="black" fill="none" stroke-width="0" transform="translate(0, 0)" rx="2"/><text fill="black" font-size="16" font-weight="normal" transform="translate(8, 8)" alignment-baseline="middle" font-family="Arial"><tspan x="0" dy="16" font-family="Arial" font-size="16" font-weight="normal">merkleroot </tspan><tspan x="0" dy="16" font-family="Arial" font-size="16" font-weight="normal"> exists</tspan></text></g></g><g transform="translate(168.25000095367432, 202.5250015258789)"><rect width="247.26666259765625" height="35" stroke="black" fill="white" stroke-width="2" transform="translate(0, 0)" rx="3"/><text fill="black" font-size="16" font-weight="normal" transform="translate(8, 8)" alignment-baseline="middle" font-family="Arial"><tspan x="0" dy="16" font-family="Arial" font-size="16" font-weight="normal">get Digital Asset from state store</tspan></text></g><g transform="translate(191.34166431427002, 348.0500030517578)"><path d="M 100.54166793823242,0 L 201.08333587646484 100.54166793823242 L 100.54166793823242 201.08333587646484 L 0 100.54166793823242 Z" fill="white" stroke="black" stroke-dasharray="none" stroke-width="2"/><g transform="translate(36.5, 64.04166793823242)"><rect width="128.08333587646484" height="73" stroke="black" fill="none" stroke-width="0" transform="translate(0, 0)" rx="2"/><text fill="black" font-size="16" font-weight="normal" transform="translate(8, 8)" alignment-baseline="middle" font-family="Arial"><tspan x="0" dy="16" font-family="Arial" font-size="16" font-weight="normal">senderAddress </tspan><tspan x="0" dy="16" font-family="Arial" font-size="16" font-weight="normal">already own </tspan><tspan x="0" dy="16" font-family="Arial" font-size="16" font-weight="normal">Digital Asset</tspan></text></g></g><g transform="translate(438.99166679382324, 431.09167098999023)"><rect width="103.1500015258789" height="35" stroke="black" fill="white" stroke-width="2" transform="translate(0, 0)" rx="3"/><text fill="black" font-size="16" font-weight="normal" transform="translate(8, 8)" alignment-baseline="middle" font-family="Arial"><tspan x="0" dy="16" font-family="Arial" font-size="16" font-weight="normal">Throw error </tspan></text></g><g transform="translate(181.0999994277954, 602.1333389282227)"><path d="M 110.78333282470703,0 L 221.56666564941406 110.78333282470703 L 110.78333282470703 221.56666564941406 L 0 110.78333282470703 Z" fill="white" stroke="black" stroke-dasharray="none" stroke-width="2"/><g transform="translate(36.5, 74.28333282470703)"><rect width="148.56666564941406" height="73" stroke="black" fill="none" stroke-width="0" transform="translate(0, 0)" rx="2"/><text fill="black" font-size="16" font-weight="normal" transform="translate(8, 8)" alignment-baseline="middle" font-family="Arial"><tspan x="0" dy="16" font-family="Arial" font-size="16" font-weight="normal">senderAddress </tspan><tspan x="0" dy="16" font-family="Arial" font-size="16" font-weight="normal">already requested </tspan><tspan x="0" dy="16" font-family="Arial" font-size="16" font-weight="normal">Digital Asset</tspan></text></g></g><g transform="translate(449.23333168029785, 695.4166717529297)"><rect width="98.69999694824219" height="35" stroke="black" fill="white" stroke-width="2" transform="translate(0, 0)" rx="3"/><text fill="black" font-size="16" font-weight="normal" transform="translate(8, 8)" alignment-baseline="middle" font-family="Arial"><tspan x="0" dy="16" font-family="Arial" font-size="16" font-weight="normal">Throw error</tspan></text></g><g transform="translate(145.56666660308838, 876.7000045776367)"><rect width="292.6333312988281" height="35" stroke="black" fill="white" stroke-width="2" transform="translate(0, 0)" rx="3"/><text fill="black" font-size="16" font-weight="normal" transform="translate(8, 8)" alignment-baseline="middle" font-family="Arial"><tspan x="0" dy="16" font-family="Arial" font-size="16" font-weight="normal">add Request in Digital Asset properties</tspan></text></g><g transform="translate(113.60833835601807, 939.7000045776367)"><rect width="356.54998779296875" height="35" stroke="black" fill="white" stroke-width="2" transform="translate(0, 0)" rx="3"/><text fill="black" font-size="16" font-weight="normal" transform="translate(8, 8)" alignment-baseline="middle" font-family="Arial"><tspan x="0" dy="16" font-family="Arial" font-size="16" font-weight="normal">add Digital Asset in senderAddress 'pending' list</tspan></text></g><g transform="translate(86.92500400543213, 1002.7000045776367)"><rect width="409.9166564941406" height="35" stroke="black" fill="white" stroke-width="2" transform="translate(0, 0)" rx="3"/><text fill="black" font-size="16" font-weight="normal" transform="translate(8, 8)" alignment-baseline="middle" font-family="Arial"><tspan x="0" dy="16" font-family="Arial" font-size="16" font-weight="normal">add Digital Asset in ownerAddress 'requested to me' list</tspan></text></g><g transform="translate(220.7083330154419, 1065.7000045776367)"><rect width="142.3499984741211" height="35" stroke="black" fill="white" stroke-width="2" transform="translate(0, 0)" rx="3"/><text fill="black" font-size="16" font-weight="normal" transform="translate(8, 8)" alignment-baseline="middle" font-family="Arial"><tspan x="0" dy="16" font-family="Arial" font-size="16" font-weight="normal">update stateStore</tspan></text></g><g transform="translate(-7.141666412353516, 431.09167098999023)"><rect width="107.5999984741211" height="35" stroke="black" fill="white" stroke-width="2" transform="translate(0, 0)" rx="3"/><text fill="black" font-size="16" font-weight="normal" transform="translate(8, 8)" alignment-baseline="middle" font-family="Arial"><tspan x="0" dy="16" font-family="Arial" font-size="16" font-weight="normal">Throw error  </tspan></text></g><path d="M 46.65833282470703,35 L 46.65833282470703 49 L 46.65833282470703 63" fill="none" stroke="black" stroke-dasharray="none" stroke-width="2" marker-end="url(#arrow)"/><path d="M 46.65833282470703,117 L 46.65833282470703 131 L 46.65833282470703 145" fill="none" stroke="black" stroke-dasharray="none" stroke-width="2" marker-end="url(#arrow)"/><path d="M 121.68333435058594,220.0250015258789 L 135.68333435058594 220.0250015258789 L 168.25000095367432 220.0250015258789" fill="none" stroke="black" stroke-dasharray="none" stroke-width="2" marker-end="url(#arrow)"/><path d="M 291.88333225250244,237.5250015258789 L 291.88333225250244 334.0500030517578 L 291.88333225250244 348.0500030517578" fill="none" stroke="black" stroke-dasharray="none" stroke-width="2" marker-end="url(#arrow)"/><path d="M 392.42500019073486,448.59167098999023 L 406.42500019073486 448.59167098999023 L 438.99166679382324 448.59167098999023" fill="none" stroke="black" stroke-dasharray="none" stroke-width="2" marker-end="url(#arrow)"/><path d="M 291.88333225250244,549.1333389282227 L 291.88333225250244 588.1333389282227 L 291.88333225250244 602.1333389282227" fill="none" stroke="black" stroke-dasharray="none" stroke-width="2" marker-end="url(#arrow)"/><path d="M 402.6666650772095,712.9166717529297 L 416.6666650772095 712.9166717529297 L 449.23333168029785 712.9166717529297" fill="none" stroke="black" stroke-dasharray="none" stroke-width="2" marker-end="url(#arrow)"/><path d="M 291.88333225250244,823.7000045776367 L 291.88333225250244 862.7000045776367 L 291.88333225250244 876.7000045776367" fill="none" stroke="black" stroke-dasharray="none" stroke-width="2" marker-end="url(#arrow)"/><path d="M 291.88333225250244,911.7000045776367 L 291.88333225250244 925.7000045776367 L 291.88333225250244 939.7000045776367" fill="none" stroke="black" stroke-dasharray="none" stroke-width="2" marker-end="url(#arrow)"/><path d="M 291.88333225250244,974.7000045776367 L 291.88333225250244 988.7000045776367 L 291.88333225250244 1002.7000045776367" fill="none" stroke="black" stroke-dasharray="none" stroke-width="2" marker-end="url(#arrow)"/><path d="M 291.88333225250244,1037.7000045776367 L 291.88333225250244 1051.7000045776367 L 291.88333225250244 1065.7000045776367" fill="none" stroke="black" stroke-dasharray="none" stroke-width="2" marker-end="url(#arrow)"/><path d="M 46.65833282470703,295.0500030517578 L 46.65833282470703 334.0500030517578 L 46.65833282470703 431.09167098999023" fill="none" stroke="black" stroke-dasharray="none" stroke-width="2" marker-end="url(#arrow)"/><g transform="translate(123.68333435058594, 192.0250015258789)"><rect width="18.56666660308838" height="25" stroke="none" fill="white" stroke-width="0" transform="translate(0, 0)" rx="2"/><text fill="black" font-size="14" font-weight="normal" transform="translate(4, 4)" alignment-baseline="middle" font-family="Arial"><tspan x="0" dy="14" font-family="Arial" font-size="14" font-weight="normal">✓</tspan></text></g><g transform="translate(48.65833282470703, 296.5500030517578)"><rect width="17.333333015441895" height="25" stroke="none" fill="white" stroke-width="0" transform="translate(0, 0)" rx="2"/><text fill="black" font-size="14" font-weight="normal" transform="translate(4, 4)" alignment-baseline="middle" font-family="Arial"><tspan x="0" dy="14" font-family="Arial" font-size="14" font-weight="normal">X</tspan></text></g><g transform="translate(394.42500019073486, 420.59167098999023)"><rect width="18.56666660308838" height="25" stroke="none" fill="white" stroke-width="0" transform="translate(0, 0)" rx="2"/><text fill="black" font-size="14" font-weight="normal" transform="translate(4, 4)" alignment-baseline="middle" font-family="Arial"><tspan x="0" dy="14" font-family="Arial" font-size="14" font-weight="normal">✓</tspan></text></g><g transform="translate(293.88333225250244, 550.6333389282227)"><rect width="17.333333015441895" height="25" stroke="none" fill="white" stroke-width="0" transform="translate(0, 0)" rx="2"/><text fill="black" font-size="14" font-weight="normal" transform="translate(4, 4)" alignment-baseline="middle" font-family="Arial"><tspan x="0" dy="14" font-family="Arial" font-size="14" font-weight="normal">X</tspan></text></g><g transform="translate(404.6666650772095, 684.9166717529297)"><rect width="18.56666660308838" height="25" stroke="none" fill="white" stroke-width="0" transform="translate(0, 0)" rx="2"/><text fill="black" font-size="14" font-weight="normal" transform="translate(4, 4)" alignment-baseline="middle" font-family="Arial"><tspan x="0" dy="14" font-family="Arial" font-size="14" font-weight="normal">✓</tspan></text></g><g transform="translate(293.88333225250244, 825.2000045776367)"><rect width="17.333333015441895" height="25" stroke="none" fill="white" stroke-width="0" transform="translate(0, 0)" rx="2"/><text fill="black" font-size="14" font-weight="normal" transform="translate(4, 4)" alignment-baseline="middle" font-family="Arial"><tspan x="0" dy="14" font-family="Arial" font-size="14" font-weight="normal">X</tspan></text></g></svg>