<svg xmlns="http://www.w3.org/2000/svg" id="mainsvg" width="2188.8350025177006" height="1863.4083305358888" viewBox="-41.166664123535156 -10 1989.8500022888184 1694.9166641235352"><defs><marker id="arrow" viewBox="0 0 10 10" refX="10" refY="5" markerWidth="5" markerHeight="5" orient="auto-start-reverse" fill="black"><path stroke="black" d="M 0 0 L 10 5 L 0 10 z"/></marker><marker id="Many" viewBox="0 0 16 16" refX="15" refY="8" markerWidth="15" markerHeight="15" orient="auto-start-reverse"><path stroke="black" d="M0 8H15M15 15L2 8L15 1" fill="none"/></marker><marker id="ZeroOrOne" viewBox="0 0 16 10" refX="15" refY="5" markerWidth="21" markerHeight="21" orient="auto-start-reverse"><path d="M9 5H16" stroke="black" fill="none"/><circle cx="5" cy="5" r="4.5" stroke="black" fill="#fff"/><path d="M12 0L12 10" stroke="black" fill="none"/></marker><marker id="OneOnlyOne" viewBox="0 0 10 14" refX="10" refY="7" markerWidth="13" markerHeight="13" orient="auto-start-reverse"><path d="M0 7H4M4 7H7M4 7V0M4 7V14M7 7H10M7 7V0M7 7V14" stroke="black" fill="none"/></marker><marker id="OneOrMany" viewBox="0 0 16 16" refX="15" refY="8" markerWidth="15" markerHeight="15" orient="auto-start-reverse"><path stroke="black" d="M2 1V15M2 8L15 15M2 8L15 1M2 8H0M2 8H15" fill="none"/></marker><marker id="ZeroOrMany" viewBox="0 0 25 16" refX="23" refY="8" markerWidth="25" markerHeight="25" orient="auto-start-reverse"><path d="M13 8H27M27 15L14 8L27 1" stroke="black" fill="none"/><path d="M13.5 7.5C13.5 10.7795 10.6254 13.5 7 13.5C3.37461 13.5 0.5 10.7795 0.5 7.5C0.5 4.22054 3.37461 1.5 7 1.5C10.6254 1.5 13.5 4.22054 13.5 7.5Z" stroke="black" fill="#fff"/></marker><marker id="aggregation" viewBox="0 0 10 6" refX="9.3" refY="2.8" markerWidth="23" markerHeight="15" orient="auto-start-reverse"><path stroke="black" fill="#fff" stroke-width="0.7" d="M1.01614 2.82609L5 0.574341L8.98386 2.82609L5 5.07783L1.01614 2.82609Z"/></marker><marker id="composition" viewBox="0 0 10 6" refX="9.7" refY="2.8" markerWidth="18" markerHeight="15" orient="auto-start-reverse"><path stroke="black" fill="black" d="M1.01614 2.82609L5 0.574341L8.98386 2.82609L5 5.07783L1.01614 2.82609Z"/></marker><marker id="implementation" viewBox="0 0 8 10" refX="8" refY="5" markerWidth="20" markerHeight="20" orient="auto-start-reverse"><path stroke="black" fill="#fff" stroke-width="0.7" d="M0.750001 1.10289L7.5 5L0.750001 8.89712L0.750001 1.10289Z"/></marker><marker id="dependency" viewBox="0 0 12 12" refX="11" refY="6" markerWidth="12" markerHeight="11" orient="auto-start-reverse"><path stroke="black" fill="#fff" d="M1 5.93162H10.886M10.886 5.93162L1 0.5M10.886 5.93162L1 11"/></marker><marker id="inheritance" viewBox="0 0 8 10" refX="8" refY="5" markerWidth="20" markerHeight="20" orient="auto-start-reverse"><path stroke="black" fill="#fff" stroke-width="0.7" d="M0.750001 1.10289L7.5 5L0.750001 8.89712L0.750001 1.10289Z"/></marker><marker id="association" viewBox="0 0 12 12" refX="11" refY="6" markerWidth="12" markerHeight="11" orient="auto-start-reverse"><path stroke="black" d="M1 5.93162H10.886M10.886 5.93162L1 0.5M10.886 5.93162L1 11"/></marker><filter id="shadowOLD" x="-50%" y="-50%" width="250%" height="250%"><feDropShadow flood-color="black" flood-opacity="0.3" dx="1" dy="1" stdDeviation="2"> </feDropShadow></filter><filter id="shadow-path" filterUnits="userSpaceOnUse" x="-41.166664123535156" y="-10" width="1989.8500022888184px" height="1684.9166641235352px"><feDropShadow flood-color="black" flood-opacity="0.1" dx="1" dy="1" stdDeviation="1"> </feDropShadow></filter><filter id="shadow" filterUnits="userSpaceOnUse" x="-41.166664123535156" y="-10" width="2089.8500022888184px" height="1784.9166641235352px"><feDropShadow flood-color="black" flood-opacity="0.1" dx="1" dy="1" stdDeviation="1"> </feDropShadow></filter></defs><rect x="-41.166664123535156" y="-10" width="1989.8500022888184" height="1684.9166641235352" fill="#fff"/><g transform="translate(0, 0)"><rect width="104.88333129882812" height="35" stroke="black" fill="white" stroke-width="2" transform="translate(0, 0)" rx="3"/><text fill="black" font-size="16" font-weight="normal" transform="translate(8, 8)" alignment-baseline="middle" font-family="Arial"><tspan x="0" dy="16" font-family="Arial" font-size="16" font-weight="normal">RESPONSE</tspan></text></g><g transform="translate(-31.166664123535156, 63)"><rect width="167.21665954589844" height="92" stroke="black" fill="white" stroke-width="2" transform="translate(0, 0)" rx="3"/><text fill="black" font-size="16" font-weight="normal" transform="translate(8, 8)" alignment-baseline="middle" font-family="Arial"><tspan x="0" dy="16" font-family="Arial" font-size="16" font-weight="normal">-responseToAddress </tspan><tspan x="0" dy="16" font-family="Arial" font-size="16" font-weight="normal">-merkleRoot </tspan><tspan x="0" dy="16" font-family="Arial" font-size="16" font-weight="normal">-response </tspan><tspan x="0" dy="16" font-family="Arial" font-size="16" font-weight="normal">-newSecret</tspan></text></g><g transform="translate(-22.583335876464844, 183)"><path d="M 75.0250015258789,0 L 150.0500030517578 75.0250015258789 L 75.0250015258789 150.0500030517578 L 0 75.0250015258789 Z" fill="white" stroke="black" stroke-dasharray="none" stroke-width="2"/><g transform="translate(27, 48.025001525878906)"><rect width="96.05000305175781" height="54" stroke="black" fill="none" stroke-width="0" transform="translate(0, 0)" rx="2"/><text fill="black" font-size="16" font-weight="normal" transform="translate(8, 8)" alignment-baseline="middle" font-family="Arial"><tspan x="0" dy="16" font-family="Arial" font-size="16" font-weight="normal">merkleroot </tspan><tspan x="0" dy="16" font-family="Arial" font-size="16" font-weight="normal"> exists</tspan></text></g></g><g transform="translate(174.03333377838135, 240.5250015258789)"><rect width="131.61666870117188" height="35" stroke="black" fill="white" stroke-width="2" transform="translate(0, 0)" rx="3"/><text fill="black" font-size="16" font-weight="normal" transform="translate(8, 8)" alignment-baseline="middle" font-family="Arial"><tspan x="0" dy="16" font-family="Arial" font-size="16" font-weight="normal">get Digital Asset</tspan></text></g><g transform="translate(141.52500247955322, 386.0500030517578)"><path d="M 98.31666564941406,0 L 196.63333129882812 98.31666564941406 L 98.31666564941406 196.63333129882812 L 0 98.31666564941406 Z" fill="white" stroke="black" stroke-dasharray="none" stroke-width="2"/><g transform="translate(36.5, 61.81666564941406)"><rect width="123.63333129882812" height="73" stroke="black" fill="none" stroke-width="0" transform="translate(0, 0)" rx="2"/><text fill="black" font-size="16" font-weight="normal" transform="translate(8, 8)" alignment-baseline="middle" font-family="Arial"><tspan x="0" dy="16" font-family="Arial" font-size="16" font-weight="normal">ownerAddress </tspan><tspan x="0" dy="16" font-family="Arial" font-size="16" font-weight="normal"> equals </tspan><tspan x="0" dy="16" font-family="Arial" font-size="16" font-weight="normal">senderAddress</tspan></text></g></g><g transform="translate(384.7250003814697, 466.8666687011719)"><rect width="293.4333190917969" height="35" stroke="black" fill="white" stroke-width="2" transform="translate(0, 0)" rx="3"/><text fill="black" font-size="16" font-weight="normal" transform="translate(8, 8)" alignment-baseline="middle" font-family="Arial"><tspan x="0" dy="16" font-family="Arial" font-size="16" font-weight="normal">get 'pending' list of responseToAddress</tspan></text></g><g transform="translate(413.9999942779541, 635.6833343505859)"><path d="M 117.44166564941406,0 L 234.88333129882812 117.44166564941406 L 117.44166564941406 234.88333129882812 L 0 117.44166564941406 Z" fill="white" stroke="black" stroke-dasharray="none" stroke-width="2"/><g transform="translate(36.5, 80.94166564941406)"><rect width="161.88333129882812" height="73" stroke="black" fill="none" stroke-width="0" transform="translate(0, 0)" rx="2"/><text fill="black" font-size="16" font-weight="normal" transform="translate(8, 8)" alignment-baseline="middle" font-family="Arial"><tspan x="0" dy="16" font-family="Arial" font-size="16" font-weight="normal">responseToAddress </tspan><tspan x="0" dy="16" font-family="Arial" font-size="16" font-weight="normal">requested </tspan><tspan x="0" dy="16" font-family="Arial" font-size="16" font-weight="normal">Digital Asset</tspan></text></g></g><g transform="translate(695.4499921798706, 735.625)"><rect width="454.3833312988281" height="35" stroke="black" fill="white" stroke-width="2" transform="translate(0, 0)" rx="3"/><text fill="black" font-size="16" font-weight="normal" transform="translate(8, 8)" alignment-baseline="middle" font-family="Arial"><tspan x="0" dy="16" font-family="Arial" font-size="16" font-weight="normal">remove Digital Asset from 'pending' list of responseToAddress</tspan></text></g><g transform="translate(682.9916639328003, 923.5666656494141)"><rect width="479.29998779296875" height="35" stroke="black" fill="white" stroke-width="2" transform="translate(0, 0)" rx="3"/><text fill="black" font-size="16" font-weight="normal" transform="translate(8, 8)" alignment-baseline="middle" font-family="Arial"><tspan x="0" dy="16" font-family="Arial" font-size="16" font-weight="normal">remove Digital Asset from 'requested to me' list of senderAddress</tspan></text></g><g transform="translate(842.9999914169312, 986.5666656494141)"><path d="M 79.64166641235352,0 L 159.28333282470703 79.64166641235352 L 79.64166641235352 159.28333282470703 L 0 79.64166641235352 Z" fill="white" stroke="black" stroke-dasharray="none" stroke-width="2"/><g transform="translate(36.5, 43.141666412353516)"><rect width="86.28333282470703" height="73" stroke="black" fill="none" stroke-width="0" transform="translate(0, 0)" rx="2"/><text fill="black" font-size="16" font-weight="normal" transform="translate(8, 8)" alignment-baseline="middle" font-family="Arial"><tspan x="0" dy="16" font-family="Arial" font-size="16" font-weight="normal">response </tspan><tspan x="0" dy="16" font-family="Arial" font-size="16" font-weight="normal"> is </tspan><tspan x="0" dy="16" font-family="Arial" font-size="16" font-weight="normal"> ok</tspan></text></g></g><g transform="translate(1087.058325767517, 1048.7083320617676)"><rect width="156.56666564941406" height="35" stroke="black" fill="white" stroke-width="2" transform="translate(0, 0)" rx="3"/><text fill="black" font-size="16" font-weight="normal" transform="translate(8, 8)" alignment-baseline="middle" font-family="Arial"><tspan x="0" dy="16" font-family="Arial" font-size="16" font-weight="normal">control request type</tspan></text></g><g transform="translate(1084.0749921798706, 1198.849998474121)"><path d="M 81.26666641235352,0 L 162.53333282470703 81.26666641235352 L 81.26666641235352 162.53333282470703 L 0 81.26666641235352 Z" fill="white" stroke="black" stroke-dasharray="none" stroke-width="2"/><g transform="translate(27, 54.266666412353516)"><rect width="108.53333282470703" height="54" stroke="black" fill="none" stroke-width="0" transform="translate(0, 0)" rx="2"/><text fill="black" font-size="16" font-weight="normal" transform="translate(8, 8)" alignment-baseline="middle" font-family="Arial"><tspan x="0" dy="16" font-family="Arial" font-size="16" font-weight="normal">request type </tspan><tspan x="0" dy="16" font-family="Arial" font-size="16" font-weight="normal">is 'VIEW'</tspan></text></g></g><g transform="translate(1293.174991607666, 1262.6166648864746)"><rect width="406.3500061035156" height="35" stroke="black" fill="white" stroke-width="2" transform="translate(0, 0)" rx="3"/><text fill="black" font-size="16" font-weight="normal" transform="translate(8, 8)" alignment-baseline="middle" font-family="Arial"><tspan x="0" dy="16" font-family="Arial" font-size="16" font-weight="normal">add Digital Asset to 'allowed' list of responseToAddress</tspan></text></g><g transform="translate(1488.3499946594238, 1478.1499977111816)"><rect width="16" height="35" stroke="black" fill="white" stroke-width="2" transform="translate(0, 0)" rx="3"/><text fill="black" font-size="16" font-weight="normal" transform="translate(8, 8)" alignment-baseline="middle" font-family="Arial"><tspan x="0" dy="16" font-family="Arial" font-size="16" font-weight="normal"/></text></g><g transform="translate(1425.1749954223633, 1629.9166641235352)"><rect width="142.3499984741211" height="35" stroke="black" fill="white" stroke-width="2" transform="translate(0, 0)" rx="3"/><text fill="black" font-size="16" font-weight="normal" transform="translate(8, 8)" alignment-baseline="middle" font-family="Arial"><tspan x="0" dy="16" font-family="Arial" font-size="16" font-weight="normal">update stateStore</tspan></text></g><g transform="translate(1084.0749921798706, 1414.3833312988281)"><path d="M 81.26666641235352,0 L 162.53333282470703 81.26666641235352 L 81.26666641235352 162.53333282470703 L 0 81.26666641235352 Z" fill="white" stroke="black" stroke-dasharray="none" stroke-width="2"/><g transform="translate(27, 54.266666412353516)"><rect width="108.53333282470703" height="54" stroke="black" fill="none" stroke-width="0" transform="translate(0, 0)" rx="2"/><text fill="black" font-size="16" font-weight="normal" transform="translate(8, 8)" alignment-baseline="middle" font-family="Arial"><tspan x="0" dy="16" font-family="Arial" font-size="16" font-weight="normal">request type </tspan><tspan x="0" dy="16" font-family="Arial" font-size="16" font-weight="normal">is 'OWN'</tspan></text></g></g><g transform="translate(1532.3499946594238, 1478.1499977111816)"><rect width="406.3333435058594" height="35" stroke="black" fill="white" stroke-width="2" transform="translate(0, 0)" rx="3"/><text fill="black" font-size="16" font-weight="normal" transform="translate(8, 8)" alignment-baseline="middle" font-family="Arial"><tspan x="0" dy="16" font-family="Arial" font-size="16" font-weight="normal">add Digital Asset to 'my files' list of responseToAddress</tspan></text></g><g transform="translate(789.2083234786987, 1243.6166648864746)"><rect width="266.8666687011719" height="73" stroke="black" fill="white" stroke-width="2" transform="translate(0, 0)" rx="3"/><text fill="black" font-size="16" font-weight="normal" transform="translate(8, 8)" alignment-baseline="middle" font-family="Arial"><tspan x="0" dy="16" font-family="Arial" font-size="16" font-weight="normal">update Digital Asset Request </tspan><tspan x="0" dy="16" font-family="Arial" font-size="16" font-weight="normal">field related to responseToAddress </tspan><tspan x="0" dy="16" font-family="Arial" font-size="16" font-weight="normal">and set to 'rejected'</tspan></text></g><g transform="translate(477.6416606903076, 923.5666656494141)"><rect width="107.5999984741211" height="35" stroke="black" fill="white" stroke-width="2" transform="translate(0, 0)" rx="3"/><text fill="black" font-size="16" font-weight="normal" transform="translate(8, 8)" alignment-baseline="middle" font-family="Arial"><tspan x="0" dy="16" font-family="Arial" font-size="16" font-weight="normal">Throw error  </tspan></text></g><g transform="translate(188.26666736602783, 735.625)"><rect width="103.1500015258789" height="35" stroke="black" fill="white" stroke-width="2" transform="translate(0, 0)" rx="3"/><text fill="black" font-size="16" font-weight="normal" transform="translate(8, 8)" alignment-baseline="middle" font-family="Arial"><tspan x="0" dy="16" font-family="Arial" font-size="16" font-weight="normal">Throw error </tspan></text></g><g transform="translate(3.0916671752929688, 466.8666687011719)"><rect width="98.69999694824219" height="35" stroke="black" fill="white" stroke-width="2" transform="translate(0, 0)" rx="3"/><text fill="black" font-size="16" font-weight="normal" transform="translate(8, 8)" alignment-baseline="middle" font-family="Arial"><tspan x="0" dy="16" font-family="Arial" font-size="16" font-weight="normal">Throw error</tspan></text></g><path d="M 52.44166564941406,35 L 52.44166564941406 49 L 52.44166564941406 63" fill="none" stroke="black" stroke-dasharray="none" stroke-width="2" marker-end="url(#arrow)"/><path d="M 52.44166564941406,155 L 52.44166564941406 169 L 52.44166564941406 183" fill="none" stroke="black" stroke-dasharray="none" stroke-width="2" marker-end="url(#arrow)"/><path d="M 127.46666717529297,258.0250015258789 L 141.46666717529297 258.0250015258789 L 174.03333377838135 258.0250015258789" fill="none" stroke="black" stroke-dasharray="none" stroke-width="2" marker-end="url(#arrow)"/><path d="M 239.84166812896729,275.5250015258789 L 239.84166812896729 372.0500030517578 L 239.84166812896729 386.0500030517578" fill="none" stroke="black" stroke-dasharray="none" stroke-width="2" marker-end="url(#arrow)"/><path d="M 338.15833377838135,484.3666687011719 L 352.15833377838135 484.3666687011719 L 384.7250003814697 484.3666687011719" fill="none" stroke="black" stroke-dasharray="none" stroke-width="2" marker-end="url(#arrow)"/><path d="M 531.4416599273682,501.8666687011719 L 531.4416599273682 621.6833343505859 L 531.4416599273682 635.6833343505859" fill="none" stroke="black" stroke-dasharray="none" stroke-width="2" marker-end="url(#arrow)"/><path d="M 648.8833255767822,753.125 L 662.8833255767822 753.125 L 695.4499921798706 753.125" fill="none" stroke="black" stroke-dasharray="none" stroke-width="2" marker-end="url(#arrow)"/><path d="M 922.6416578292847,770.625 L 922.6416578292847 909.5666656494141 L 922.6416578292847 923.5666656494141" fill="none" stroke="black" stroke-dasharray="none" stroke-width="2" marker-end="url(#arrow)"/><path d="M 922.6416578292847,958.5666656494141 L 922.6416578292847 972.5666656494141 L 922.6416578292847 986.5666656494141" fill="none" stroke="black" stroke-dasharray="none" stroke-width="2" marker-end="url(#arrow)"/><path d="M 1002.2833242416382,1066.2083320617676 L 1016.2833242416382 1066.2083320617676 L 1087.058325767517 1066.2083320617676" fill="none" stroke="black" stroke-dasharray="none" stroke-width="2" marker-end="url(#arrow)"/><path d="M 1165.3416585922241,1083.7083320617676 L 1165.3416585922241 1184.849998474121 L 1165.3416585922241 1198.849998474121" fill="none" stroke="black" stroke-dasharray="none" stroke-width="2" marker-end="url(#arrow)"/><path d="M 1246.6083250045776,1280.1166648864746 L 1260.6083250045776 1280.1166648864746 L 1293.174991607666 1280.1166648864746" fill="none" stroke="black" stroke-dasharray="none" stroke-width="2" marker-end="url(#arrow)"/><path d="M 1496.3499946594238,1297.6166648864746 L 1496.3499946594238 1400.3833312988281 L 1496.3499946594238 1478.1499977111816" fill="none" stroke="black" stroke-dasharray="none" stroke-width="2" marker-end="url(#arrow)"/><path d="M 1496.3499946594238,1513.1499977111816 L 1496.3499946594238 1615.9166641235352 L 1496.3499946594238 1629.9166641235352" fill="none" stroke="black" stroke-dasharray="none" stroke-width="2" marker-end="url(#arrow)"/><path d="M 1165.3416585922241,1361.3833312988281 L 1165.3416585922241 1400.3833312988281 L 1165.3416585922241 1414.3833312988281" fill="none" stroke="black" stroke-dasharray="none" stroke-width="2" marker-end="url(#arrow)"/><path d="M 1246.6083250045776,1495.6499977111816 L 1260.6083250045776 1495.6499977111816 L 1532.3499946594238 1495.6499977111816" fill="none" stroke="black" stroke-dasharray="none" stroke-width="2" marker-end="url(#arrow)"/><path d="M 1735.5166664123535,1513.1499977111816 L 1735.5166664123535 1615.9166641235352 L 1496.3499946594238 1615.9166641235352 L 1496.3499946594238 1629.9166641235352" fill="none" stroke="black" stroke-dasharray="none" stroke-width="2" marker-end="url(#arrow)"/><path d="M 922.6416578292847,1145.849998474121 L 922.6416578292847 1184.849998474121 L 922.6416578292847 1243.6166648864746" fill="none" stroke="black" stroke-dasharray="none" stroke-width="2" marker-end="url(#arrow)"/><path d="M 531.4416599273682,870.5666656494141 L 531.4416599273682 909.5666656494141 L 531.4416599273682 923.5666656494141" fill="none" stroke="black" stroke-dasharray="none" stroke-width="2" marker-end="url(#arrow)"/><path d="M 239.84166812896729,582.6833343505859 L 239.84166812896729 621.6833343505859 L 239.84166812896729 735.625" fill="none" stroke="black" stroke-dasharray="none" stroke-width="2" marker-end="url(#arrow)"/><path d="M 52.44166564941406,333.0500030517578 L 52.44166564941406 372.0500030517578 L 52.44166564941406 466.8666687011719" fill="none" stroke="black" stroke-dasharray="none" stroke-width="2" marker-end="url(#arrow)"/><g transform="translate(129.46666717529297, 230.0250015258789)"><rect width="18.56666660308838" height="25" stroke="none" fill="white" stroke-width="0" transform="translate(0, 0)" rx="2"/><text fill="black" font-size="14" font-weight="normal" transform="translate(4, 4)" alignment-baseline="middle" font-family="Arial"><tspan x="0" dy="14" font-family="Arial" font-size="14" font-weight="normal">✓</tspan></text></g><g transform="translate(54.44166564941406, 334.5500030517578)"><rect width="17.333333015441895" height="25" stroke="none" fill="white" stroke-width="0" transform="translate(0, 0)" rx="2"/><text fill="black" font-size="14" font-weight="normal" transform="translate(4, 4)" alignment-baseline="middle" font-family="Arial"><tspan x="0" dy="14" font-family="Arial" font-size="14" font-weight="normal">X</tspan></text></g><g transform="translate(340.15833377838135, 456.3666687011719)"><rect width="18.56666660308838" height="25" stroke="none" fill="white" stroke-width="0" transform="translate(0, 0)" rx="2"/><text fill="black" font-size="14" font-weight="normal" transform="translate(4, 4)" alignment-baseline="middle" font-family="Arial"><tspan x="0" dy="14" font-family="Arial" font-size="14" font-weight="normal">✓</tspan></text></g><g transform="translate(241.84166812896729, 584.1833343505859)"><rect width="17.333333015441895" height="25" stroke="none" fill="white" stroke-width="0" transform="translate(0, 0)" rx="2"/><text fill="black" font-size="14" font-weight="normal" transform="translate(4, 4)" alignment-baseline="middle" font-family="Arial"><tspan x="0" dy="14" font-family="Arial" font-size="14" font-weight="normal">X</tspan></text></g><g transform="translate(650.8833255767822, 725.125)"><rect width="18.56666660308838" height="25" stroke="none" fill="white" stroke-width="0" transform="translate(0, 0)" rx="2"/><text fill="black" font-size="14" font-weight="normal" transform="translate(4, 4)" alignment-baseline="middle" font-family="Arial"><tspan x="0" dy="14" font-family="Arial" font-size="14" font-weight="normal">✓</tspan></text></g><g transform="translate(533.4416599273682, 872.0666656494141)"><rect width="17.333333015441895" height="25" stroke="none" fill="white" stroke-width="0" transform="translate(0, 0)" rx="2"/><text fill="black" font-size="14" font-weight="normal" transform="translate(4, 4)" alignment-baseline="middle" font-family="Arial"><tspan x="0" dy="14" font-family="Arial" font-size="14" font-weight="normal">X</tspan></text></g><g transform="translate(1004.2833242416382, 1038.2083320617676)"><rect width="18.56666660308838" height="25" stroke="none" fill="white" stroke-width="0" transform="translate(0, 0)" rx="2"/><text fill="black" font-size="14" font-weight="normal" transform="translate(4, 4)" alignment-baseline="middle" font-family="Arial"><tspan x="0" dy="14" font-family="Arial" font-size="14" font-weight="normal">✓</tspan></text></g><g transform="translate(924.6416578292847, 1147.349998474121)"><rect width="17.333333015441895" height="25" stroke="none" fill="white" stroke-width="0" transform="translate(0, 0)" rx="2"/><text fill="black" font-size="14" font-weight="normal" transform="translate(4, 4)" alignment-baseline="middle" font-family="Arial"><tspan x="0" dy="14" font-family="Arial" font-size="14" font-weight="normal">X</tspan></text></g><g transform="translate(1248.6083250045776, 1252.1166648864746)"><rect width="18.56666660308838" height="25" stroke="none" fill="white" stroke-width="0" transform="translate(0, 0)" rx="2"/><text fill="black" font-size="14" font-weight="normal" transform="translate(4, 4)" alignment-baseline="middle" font-family="Arial"><tspan x="0" dy="14" font-family="Arial" font-size="14" font-weight="normal">✓</tspan></text></g><g transform="translate(1167.3416585922241, 1362.8833312988281)"><rect width="17.333333015441895" height="25" stroke="none" fill="white" stroke-width="0" transform="translate(0, 0)" rx="2"/><text fill="black" font-size="14" font-weight="normal" transform="translate(4, 4)" alignment-baseline="middle" font-family="Arial"><tspan x="0" dy="14" font-family="Arial" font-size="14" font-weight="normal">X</tspan></text></g><g transform="translate(1248.6083250045776, 1467.6499977111816)"><rect width="18.56666660308838" height="25" stroke="none" fill="white" stroke-width="0" transform="translate(0, 0)" rx="2"/><text fill="black" font-size="14" font-weight="normal" transform="translate(4, 4)" alignment-baseline="middle" font-family="Arial"><tspan x="0" dy="14" font-family="Arial" font-size="14" font-weight="normal">✓</tspan></text></g><g transform="translate(1167.3416585922241, 1578.4166641235352)"><rect width="17.333333015441895" height="25" stroke="none" fill="white" stroke-width="0" transform="translate(0, 0)" rx="2"/><text fill="black" font-size="14" font-weight="normal" transform="translate(4, 4)" alignment-baseline="middle" font-family="Arial"><tspan x="0" dy="14" font-family="Arial" font-size="14" font-weight="normal">X</tspan></text></g></svg>